<svg width="24" height="24" viewBox="0 0 24 24" fill="none" xmlns="http://www.w3.org/2000/svg">
    <path opacity="0.5" fill-rule="evenodd" clip-rule="evenodd" d="M5.8861 4H16.5193C17.2243 4 17.9005 4.28007 18.399 4.7786C18.8975 5.27713 19.1776 5.95328 19.1776 6.6583V17.2915C19.1776 17.9965 18.8975 18.6727 18.399 19.1712C17.9005 19.6697 17.2243 19.9498 16.5193 19.9498H8.5444V19.95H6.7722V19.9498H5.8861C5.65109 19.9498 5.42571 19.8565 5.25953 19.6903C5.09336 19.5241 5 19.2987 5 19.0637V4.8861C5 4.65109 5.09336 4.42571 5.25953 4.25953C5.42571 4.09336 5.65109 4 5.8861 4ZM6.7722 18.1776H13.861V5.7722H6.7722V18.1776ZM17.1459 17.9181C17.312 17.7519 17.4054 17.5265 17.4054 17.2915V6.6583C17.4054 6.42329 17.312 6.19791 17.1459 6.03173C16.9797 5.86556 16.7543 5.7722 16.5193 5.7722H15.6332V18.1776H16.5193C16.7543 18.1776 16.9797 18.0842 17.1459 17.9181Z" fill="black"/>
</svg>
