<svg width="24" height="24" viewBox="0 0 24 24" fill="none" xmlns="http://www.w3.org/2000/svg">
    <g opacity="0.5">
        <path d="M6.90909 14.4545C6.90909 14.0529 7.2347 13.7273 7.63636 13.7273H13.4545C13.8562 13.7273 14.1818 14.0529 14.1818 14.4545C14.1818 14.8562 13.8562 15.1818 13.4545 15.1818H7.63636C7.2347 15.1818 6.90909 14.8562 6.90909 14.4545Z" fill="black"/>
        <path d="M16.3636 10.8182C16.7653 10.8182 17.0909 11.1438 17.0909 11.5455C17.0909 11.9471 16.7653 12.2727 16.3636 12.2727H10.5455C10.1438 12.2727 9.81818 11.9471 9.81818 11.5455C9.81818 11.1438 10.1438 10.8182 10.5455 10.8182H16.3636Z" fill="black"/>
        <path d="M14.9091 14.4545C14.9091 14.0529 15.2347 13.7273 15.6364 13.7273H16.3636C16.7653 13.7273 17.0909 14.0529 17.0909 14.4545C17.0909 14.8562 16.7653 15.1818 16.3636 15.1818H15.6364C15.2347 15.1818 14.9091 14.8562 14.9091 14.4545Z" fill="black"/>
        <path d="M8.36364 10.8182C8.7653 10.8182 9.09091 11.1438 9.09091 11.5455C9.09091 11.9471 8.7653 12.2727 8.36364 12.2727H7.63636C7.2347 12.2727 6.90909 11.9471 6.90909 11.5455C6.90909 11.1438 7.2347 10.8182 7.63636 10.8182H8.36364Z" fill="black"/>
        <path fill-rule="evenodd" clip-rule="evenodd" d="M6.18182 5C4.97683 5 4 5.97683 4 7.18182V15.9091C4 17.1141 4.97683 18.0909 6.18182 18.0909H17.8182C19.0232 18.0909 20 17.1141 20 15.9091V7.18182C20 5.97683 19.0232 5 17.8182 5H6.18182ZM17.8182 6.45455H6.18182C5.78016 6.45455 5.45455 6.78016 5.45455 7.18182V15.9091C5.45455 16.3108 5.78016 16.6364 6.18182 16.6364H17.8182C18.2198 16.6364 18.5455 16.3108 18.5455 15.9091V7.18182C18.5455 6.78016 18.2198 6.45455 17.8182 6.45455Z" fill="black"/>
    </g>
</svg>
