<svg width="24" height="24" viewBox="0 0 24 24" fill="none" xmlns="http://www.w3.org/2000/svg">
    <path opacity="0.5" d="M12 20.9999C10.6393 21.0037 9.29573 20.6958 8.07244 20.0998C7.62474 19.8821 7.19578 19.6277 6.78995 19.3393L6.66665 19.2493C5.5505 18.4255 4.63796 17.3569 3.99908 16.1255C3.33825 14.851 2.99551 13.4355 3.00004 11.9999C3.00004 7.0294 7.02949 3 12 3C16.9705 3 21 7.0294 21 11.9999C21.0044 13.4348 20.662 14.8496 20.0018 16.1237C19.3638 17.3543 18.4526 18.4226 17.3378 19.2466C16.9173 19.5544 16.4711 19.8254 16.0041 20.0566L15.9321 20.0926C14.708 20.6918 13.3628 21.0021 12 20.9999ZM12 16.4998C10.6513 16.4972 9.41492 17.2505 8.79873 18.4501C10.816 19.4493 13.184 19.4493 15.2013 18.4501V18.4456C14.5843 17.2473 13.3478 16.4957 12 16.4998ZM12 14.6999C13.9495 14.7024 15.747 15.753 16.7061 17.4503L16.7196 17.4386L16.7322 17.4278L16.7169 17.4413L16.7079 17.4485C18.9839 15.4821 19.7978 12.308 18.7487 9.48903C17.6997 6.67005 15.0088 4.80027 12.0009 4.80027C8.99305 4.80027 6.30215 6.67005 5.25308 9.48903C4.20402 12.308 5.01787 15.4821 7.29395 17.4485C8.25357 15.752 10.0509 14.7022 12 14.6999ZM12 13.7999C10.0118 13.7999 8.40004 12.1881 8.40004 10.1999C8.40004 8.21172 10.0118 6.59996 12 6.59996C13.9882 6.59996 15.6 8.21172 15.6 10.1999C15.6 11.1547 15.2207 12.0704 14.5456 12.7455C13.8704 13.4206 12.9548 13.7999 12 13.7999ZM12 8.39995C11.0059 8.39995 10.2 9.20583 10.2 10.1999C10.2 11.194 11.0059 11.9999 12 11.9999C12.9941 11.9999 13.8 11.194 13.8 10.1999C13.8 9.20583 12.9941 8.39995 12 8.39995Z" fill="black"/>
</svg>
