<svg width="390" height="451" viewBox="0 0 390 451" fill="none" xmlns="http://www.w3.org/2000/svg">
    <path d="M81.8906 65.2524L97.5534 56.2289L195.036 0L292.518 56.2289L390 112.532V222.678L325.857 185.54V149.521L260.446 111.787L195.036 73.9775L129.625 111.787L81.8906 139.304V65.2524Z" fill="#DC0000"/>
    <path d="M212.636 365.859L260.296 338.342L325.706 300.607V259.591L389.849 296.729V337.596L292.367 393.899L276.779 402.923L212.636 365.859Z" fill="#DC0000"/>
    <path d="M194.965 450.118L97.4824 393.889L0 337.586V225.053V112.521L64.1429 75.4572V149.509V225.053V255.852V300.597L129.554 338.331L130.225 338.704L194.965 376.141L259.108 413.129L194.965 450.118Z" fill="black"/>
    <path d="M146.034 85.1686H81.8906V288.383H146.034V85.1686Z" fill="#DC0000"/>
    <path d="M309.002 347.3L276.93 402.858L81.8906 288.387L113.962 232.904L309.002 347.3Z" fill="#DC0000"/>
    <path d="M389.916 327.553L203.305 219.42V145.368L389.916 253.5V327.553Z" fill="#DC0000"/>
</svg>
