<svg width="87" height="13" viewBox="0 0 87 13" fill="none" xmlns="http://www.w3.org/2000/svg">
    <path d="M10.2433 12.5946H0V0.645569H2.73096V9.86368H10.2389L10.2433 12.5946Z" fill="black"/>
    <path d="M23.7271 12.5928H16.7295L15.5342 9.86188H19.456L17.325 5.0536L13.9896 12.5928H10.9274V9.86188H12.1406L16.2192 0.643768H18.4397L23.7271 12.5928Z" fill="black"/>
    <path d="M35.5035 12.5928H32.7725L27.1404 5.81468V12.5928H24.4095V0.643768H27.1449L32.7725 7.41297V0.643768H35.5035V12.5928Z" fill="black"/>
    <path d="M48.1267 12.5883H42.1544C40.5024 12.5883 39.0966 12.0063 37.9281 10.8378C36.7596 9.6738 36.1776 8.26355 36.1776 6.61154C36.1776 4.96401 36.7596 3.55376 37.9281 2.38527C39.0921 1.22125 40.5024 0.634766 42.1544 0.634766H48.1267V3.36573H42.1544C41.2545 3.36573 40.489 3.68359 39.8577 4.31485C39.2264 4.9461 38.9086 5.71167 38.9086 6.61154C38.9086 7.51141 39.2264 8.27698 39.8577 8.90823C40.489 9.53949 41.2545 9.85735 42.1544 9.85735H45.3957V7.9815H43.69L42.4946 5.25054H48.1267V12.5883Z" fill="#DC0000"/>
    <path d="M61.6177 12.5928H54.6202L53.4249 9.86188H57.3467L55.2157 5.0536L51.8803 12.5928H48.8181V9.86188H50.0313L54.1098 0.643768H56.3304L61.6177 12.5928Z" fill="#DC0000"/>
    <path d="M75.0972 12.5928H72.3662V7.18016L69.5502 12.5884H67.8445L65.0284 7.18016V12.5884H62.2975V0.643768H65.0329L68.6996 7.98154L72.3662 0.643768H75.1017V12.5928H75.0972Z" fill="#DC0000"/>
    <path d="M86.0185 12.5928H75.7796V0.643768H86.0185V3.37473H78.5106V5.25058H84.3127V7.98154H78.5106V9.8574H86.0185V12.5928Z" fill="#DC0000"/>
</svg>
